# Blender 4.1.1
# www.blender.org
mtllib star.mtl
o star
v -5.378562 1.474725 2.349932
v -4.807028 -1.774583 2.404484
v -2.688620 0.616910 2.845908
v -1.661277 -2.486523 2.845736
v 1.661233 -2.485314 2.845908
v 5.378518 1.475934 2.398097
v 2.971047 3.775585 2.404484
v 0.000099 7.839032 1.630050
v 0.000099 12.761680 -0.708270
v -4.140281 5.360532 1.120954
v -12.594379 3.776792 -0.708270
v -3.324118 -4.733693 2.349759
v 0.000101 -5.202738 2.404485
v 0.000100 -0.239525 3.097090
v 4.835550 -6.774911 1.629877
v 3.324075 -4.732312 2.349759
v 0.000100 5.313231 2.349760
v -2.971091 3.774203 2.404484
v -7.825095 2.255892 1.629878
v -7.783346 -10.758949 -0.708269
v 0.000101 -7.148145 1.120955
v 0.000101 -7.622197 -0.708270
v 6.698831 -2.370167 1.120781
v 4.806985 -1.773200 2.404484
v 0.000100 2.536940 2.845908
v -6.698874 -2.371376 -2.537494
v -4.807029 -1.774237 -3.821025
v -4.835593 -6.775948 -3.046418
v -3.324118 -4.733348 -3.766300
v 0.000100 -5.202566 -3.821198
v 0.000101 -7.147972 -2.537322
v 7.783304 -10.757910 -0.708270
v 4.835550 -6.774911 -3.046418
v 6.698831 -2.369994 -2.537495
v 7.151956 -2.520876 -0.708270
v 5.378518 1.476107 -3.814465
v 0.000099 7.839205 -3.046418
v -4.140281 5.360705 -2.537323
v -4.419090 5.732730 -0.708270
v -2.688621 0.617255 -4.262448
v -5.378562 1.474898 -3.766300
v 0.000100 -0.239179 -4.513630
v 1.661233 -2.484968 -4.262449
v 7.825051 2.257102 -2.998254
v 4.419045 5.733767 -0.708270
v 4.140236 5.361915 -2.537495
v 0.000099 5.313404 -3.766474
v -2.971092 3.774549 -3.821025
v -1.661277 -2.486350 -4.262448
v 3.324075 -4.732140 -3.766473
v 2.688576 0.618464 -4.262276
v 4.806985 -1.773200 -3.821025
v 2.971047 3.775585 -3.821025
v -4.835593 -6.776293 1.629879
v -2.186179 3.291002 2.719541
v -1.770652 3.291002 2.766497
v -2.217429 -1.245288 3.022857
v -2.706931 -0.808180 2.966924
v -2.035056 -0.532139 3.270241
v 2.675637 2.855276 2.663607
v 2.186135 3.292384 2.719540
v 1.770608 3.292211 2.767705
v 2.010354 2.579062 3.028209
v 2.217386 -1.244079 3.023030
v 2.706887 -0.806799 2.966924
v 2.706887 1.024843 2.961745
v -2.706931 1.023461 2.961745
v -2.675681 2.853894 2.663607
v -2.029929 1.023461 3.220696
v -2.010398 2.577853 3.028037
v -1.281150 2.853894 2.822430
v -1.312400 1.023462 3.119187
v 1.281106 2.855276 2.822430
v 2.029886 1.024843 3.222077
v 1.312356 1.024843 3.120568
v 2.035012 -0.530758 3.270241
v 1.312356 -0.806799 3.125747
v -6.698874 -2.371377 1.120954
v 1.801858 -1.244079 3.069641
v -7.151999 -2.522258 -0.708270
v 4.140236 5.361914 1.120954
v 0.000100 2.537112 -4.262276
v -7.825096 2.255892 -3.046418
v 2.688577 0.618291 2.845908
v -1.801902 -1.245288 3.069814
v -1.312400 -0.808180 3.125747
v 12.594339 3.778176 -0.708270
v 7.825051 2.257101 1.581713
vn 0.1998 -0.2794 -0.9392
vn 0.2246 -0.0744 -0.9716
vn 0.3753 -0.1235 -0.9187
vn 0.3236 0.1069 -0.9401
vn 0.1261 -0.0417 -0.9911
vn 0.0779 0.1093 -0.9910
vn -0.0000 -0.0000 -1.0000
vn -0.0779 0.1092 -0.9910
vn -0.1204 -0.0399 -0.9919
vn -0.3253 0.1087 -0.9394
vn -0.2396 -0.0794 -0.9676
vn -0.3778 -0.1242 -0.9175
vn -0.2000 -0.2818 -0.9384
vn -0.4351 -0.6033 -0.6684
vn 0.0001 -0.3998 -0.9166
vn -0.0000 -1.0000 -0.0000
vn 0.4334 -0.6055 -0.6674
vn 0.5817 -0.8134 -0.0000
vn 0.9519 -0.3063 -0.0000
vn 0.1384 0.1944 -0.9711
vn 0.2313 0.3241 -0.9173
vn -0.0001 0.3465 -0.9380
vn -0.0000 -0.1350 -0.9908
vn -0.1385 0.1944 -0.9711
vn -0.2313 0.3241 -0.9173
vn 0.0001 -0.2398 -0.9708
vn 0.7029 0.2324 -0.6722
vn 0.9499 0.3125 -0.0000
vn 0.5907 0.8069 -0.0000
vn -0.0001 0.7463 -0.6656
vn -0.5908 0.8068 -0.0000
vn -0.0001 1.0000 0.0001
vn -0.7030 0.2295 -0.6732
vn -0.9519 -0.3064 -0.0000
vn 0.1998 -0.2794 0.9392
vn 0.3753 -0.1235 0.9187
vn 0.2245 -0.0744 0.9716
vn 0.3236 0.1069 0.9401
vn 0.7029 0.2324 0.6722
vn 0.2313 0.3241 0.9173
vn -0.0001 0.7463 0.6656
vn 0.1385 0.1944 0.9711
vn -0.0000 0.3465 0.9380
vn -0.2313 0.3241 0.9173
vn -0.7029 0.2295 0.6732
vn -0.9499 0.3125 -0.0000
vn -0.3252 0.1086 0.9394
vn -0.3778 -0.1243 0.9175
vn -0.2396 -0.0794 0.9676
vn -0.2000 -0.2817 0.9384
vn -0.4351 -0.6033 0.6684
vn 0.0001 -0.3998 0.9166
vn 0.4335 -0.6056 0.6674
vn -0.1204 -0.0399 0.9919
vn -0.0000 -0.1350 0.9908
vn -0.0000 -0.0000 1.0000
vn 0.1262 -0.0417 0.9911
vn 0.0779 0.1092 0.9910
vn -0.0780 0.1092 0.9910
vn -0.1385 0.1943 0.9711
vn -0.5817 -0.8134 -0.0000
vn -0.0000 -0.2398 0.9708
vn 0.3897 -0.2107 -0.8965
vn 0.2282 -0.3386 -0.9128
vn 0.1208 -0.2063 -0.9710
vn -0.0178 -0.3390 -0.9406
vn 0.2070 0.2730 -0.9395
vn 0.3696 0.1137 -0.9222
vn 0.1052 0.0859 -0.9907
vn 0.3635 -0.0907 -0.9272
vn -0.3899 -0.2110 -0.8964
vn -0.1209 -0.2065 -0.9710
vn -0.2296 -0.3383 -0.9126
vn 0.0169 -0.3381 -0.9410
vn 0.1857 -0.2226 -0.9571
vn -0.2066 0.2728 -0.9396
vn -0.1054 0.0862 -0.9907
vn -0.3697 0.1135 -0.9222
vn -0.3650 -0.0904 -0.9266
vn -0.1136 -0.0788 -0.9904
vn 0.1129 -0.0790 -0.9905
vn -0.1505 -0.0673 -0.9863
vn -0.1854 -0.2230 -0.9570
vn -0.1474 0.1038 -0.9836
vn 0.1505 -0.0674 -0.9863
vn 0.1472 0.1044 -0.9836
vn 0.0088 0.2732 -0.9619
vn -0.0084 0.2733 -0.9619
vt 0.390625 0.378906
vt 0.298828 0.464844
vt 0.207031 0.435547
vt 0.320312 0.589844
vt 0.400391 0.498047
vt 0.439453 0.617188
vt 0.501953 0.531250
vt 0.564453 0.617188
vt 0.601562 0.498047
vt 0.681641 0.589844
vt 0.703125 0.464844
vt 0.794922 0.435547
vt 0.613281 0.378906
vt 0.656250 0.318359
vt 0.501953 0.222656
vt 0.501953 0.035156
vt 0.345703 0.318359
vt 0.291016 0.242188
vt 0.029297 0.378906
vt 0.376953 0.703125
vt 0.320312 0.781250
vt 0.501953 0.720703
vt 0.501953 0.425781
vt 0.625000 0.703125
vt 0.683594 0.781250
vt 0.501953 0.318359
vt 0.250000 0.613281
vt 0.160156 0.642578
vt 0.208984 0.933594
vt 0.501953 0.794922
vt 0.792969 0.933594
vt 0.501953 0.888672
vt 0.751953 0.613281
vt 0.972656 0.378906
vt 0.710938 0.242188
vt 0.660156 0.113281
vt 0.574219 0.021484
vt 0.730469 0.001953
vt 0.574219 -0.027344
vt 0.324219 0.041016
vt 0.265625 0.130859
vt 0.228516 0.007812
vt 0.017578 0.130859
vt 0.660156 -0.119141
vt 0.017578 0.005859
vt 1.009766 0.130859
vt 1.009766 0.005859
vt 1.009766 -0.126953
vt 0.265625 -0.126953
vt 0.017578 -0.126953
vt 0.324219 -0.035156
vt 0.841797 0.642578
s 1
usemtl star
f 18/1/1 1/2/2 19/3/3
f 1/2/2 2/4/4 19/3/3
f 1/2/2 3/5/5 2/4/4
f 3/5/5 4/6/6 2/4/4
f 3/5/5 14/7/7 4/6/6
f 14/7/7 5/8/8 4/6/6
f 14/7/7 84/9/9 5/8/8
f 84/9/9 24/10/10 5/8/8
f 84/9/9 6/11/11 24/10/10
f 6/11/11 88/12/12 24/10/10
f 6/11/11 7/13/13 88/12/12
f 7/13/13 81/14/14 88/12/12
f 7/13/13 8/15/15 81/14/14
f 8/15/15 9/16/16 81/14/14
f 8/15/15 10/17/17 9/16/16
f 10/17/17 39/18/18 9/16/16
f 10/17/17 11/19/19 39/18/18
f 2/4/4 12/20/20 54/21/21
f 12/20/20 13/22/22 54/21/21
f 12/20/20 4/6/6 13/22/22
f 4/6/6 5/8/8 13/22/22
f 84/9/9 14/7/7 25/23/23
f 14/7/7 3/5/5 25/23/23
f 13/22/22 16/24/24 15/25/25
f 16/24/24 24/10/10 15/25/25
f 16/24/24 5/8/8 24/10/10
f 17/26/26 18/1/1 8/15/15
f 18/1/1 10/17/17 8/15/15
f 18/1/1 19/3/3 10/17/17
f 19/3/3 11/19/19 10/17/17
f 19/3/3 78/27/27 11/19/19
f 78/27/27 80/28/28 11/19/19
f 78/27/27 20/29/29 80/28/28
f 20/29/29 54/21/21 21/30/30
f 54/21/21 13/22/22 21/30/30
f 15/25/25 32/31/31 21/30/30
f 32/31/31 22/32/32 21/30/30
f 32/31/31 15/25/25 23/33/33
f 15/25/25 24/10/10 23/33/33
f 87/34/34 23/33/33 88/12/12
f 23/33/33 24/10/10 88/12/12
f 25/23/23 17/26/26 7/13/13
f 17/26/26 8/15/15 7/13/13
f 3/5/5 18/1/1 25/23/23
f 18/1/1 17/26/26 25/23/23
f 48/13/35 83/12/36 41/11/37
f 83/12/36 27/10/38 41/11/37
f 83/12/36 26/33/39 27/10/38
f 26/33/39 28/25/40 27/10/38
f 26/33/39 20/31/29 28/25/40
f 20/31/29 31/30/41 28/25/40
f 20/31/29 22/32/32 31/30/41
f 22/32/32 32/29/31 31/30/41
f 27/10/38 28/25/40 29/24/42
f 28/25/40 30/22/43 29/24/42
f 28/25/40 31/30/41 30/22/43
f 31/30/41 33/21/44 30/22/43
f 31/30/41 32/29/31 33/21/44
f 32/29/31 34/27/45 33/21/44
f 32/29/31 35/28/46 34/27/45
f 35/28/46 87/19/34 34/27/45
f 52/4/47 44/3/48 36/2/49
f 44/3/48 53/1/50 36/2/49
f 44/3/48 46/17/51 53/1/50
f 46/17/51 37/15/52 53/1/50
f 46/17/51 9/16/16 37/15/52
f 9/16/16 38/14/53 37/15/52
f 9/16/16 39/35/18 38/14/53
f 39/35/18 11/34/19 38/14/53
f 51/5/54 82/23/55 42/7/56
f 82/23/55 40/9/57 42/7/56
f 82/23/55 48/13/35 40/9/57
f 48/13/35 41/11/37 40/9/57
f 42/7/56 49/8/58 43/6/59
f 49/8/58 30/22/43 43/6/59
f 49/8/58 29/24/42 30/22/43
f 30/22/43 33/21/44 50/20/60
f 33/21/44 52/4/47 50/20/60
f 33/21/44 34/27/45 52/4/47
f 34/27/45 44/3/48 52/4/47
f 34/27/45 87/19/34 44/3/48
f 87/19/34 46/17/51 44/3/48
f 87/19/34 45/18/61 46/17/51
f 45/18/61 9/16/16 46/17/51
f 47/26/62 37/15/52 48/13/35
f 37/15/52 38/14/53 48/13/35
f 48/13/35 38/14/53 83/12/36
f 38/14/53 11/34/19 83/12/36
f 29/24/42 49/8/58 27/10/38
f 49/8/58 40/9/57 27/10/38
f 49/8/58 42/7/56 40/9/57
f 52/4/47 43/6/59 50/20/60
f 43/6/59 30/22/43 50/20/60
f 53/1/50 51/5/54 36/2/49
f 51/5/54 52/4/47 36/2/49
f 51/5/54 43/6/59 52/4/47
f 82/23/55 53/1/50 47/26/62
f 53/1/50 37/15/52 47/26/62
f 2/4/4 54/21/21 78/27/27
f 54/21/21 20/29/29 78/27/27
f 68/36/63 55/37/64 70/38/65
f 55/37/64 56/39/66 70/38/65
f 57/40/67 58/41/68 59/42/69
f 58/41/68 67/43/70 59/42/69
f 60/36/71 63/38/72 61/37/73
f 63/38/72 62/39/74 61/37/73
f 63/38/72 73/44/75 62/39/74
f 64/40/76 76/42/77 65/41/78
f 76/42/77 66/43/79 65/41/78
f 76/42/77 74/45/80 66/43/79
f 67/46/70 68/36/63 69/47/81
f 68/36/63 70/38/65 69/47/81
f 69/47/81 70/38/65 72/48/82
f 70/38/65 71/44/83 72/48/82
f 70/38/65 56/39/66 71/44/83
f 59/42/69 69/45/81 86/49/84
f 69/45/81 72/50/82 86/49/84
f 66/46/79 74/47/80 60/36/71
f 74/47/80 63/38/72 60/36/71
f 74/47/80 75/48/85 63/38/72
f 75/48/85 73/44/75 63/38/72
f 76/42/77 77/49/86 74/45/80
f 77/49/86 75/50/85 74/45/80
f 3/5/5 1/2/2 18/1/1
f 13/22/22 15/25/25 21/30/30
f 59/42/69 85/51/87 57/40/67
f 76/42/77 79/51/88 77/49/86
f 27/10/38 40/9/57 41/11/37
f 21/30/30 22/32/32 20/29/29
f 19/3/3 2/4/4 78/27/27
f 7/13/13 84/9/9 25/23/23
f 76/42/77 64/40/76 79/51/88
f 12/20/20 2/4/4 4/6/6
f 23/33/33 87/34/34 35/52/46
f 5/8/8 16/24/24 13/22/22
f 81/14/14 9/16/16 45/35/61
f 26/33/39 80/52/28 20/31/29
f 59/42/69 67/43/70 69/45/81
f 48/13/35 82/23/55 47/26/62
f 26/33/39 11/34/19 80/52/28
f 81/14/14 45/35/61 87/34/34
f 53/1/50 82/23/55 51/5/54
f 11/34/19 26/33/39 83/12/36
f 7/13/13 6/11/11 84/9/9
f 43/6/59 51/5/54 42/7/56
f 59/42/69 86/49/84 85/51/87
f 23/33/33 35/52/46 32/31/31
f 87/34/34 88/12/12 81/14/14
