# 3ds Max Wavefront OBJ Exporter v0.97b - (c)2007 guruware
# File Created: 27.10.2016 13:33:32

mtllib field.mtl

#
# object Nemu_76BACB49_0_030
#

v  -4.2410 0.0000 -2.1200
v  -2.1200 0.0000 -2.1200
v  -2.1200 0.0000 -4.2410
v  -4.2410 0.0000 -4.2410
v  0.0000 0.0000 -4.2410
v  -4.2410 0.0000 -0.0000
v  -2.1200 0.0000 -0.0000
v  0.0000 0.0000 -2.1200
v  2.1200 0.0000 -4.2410
v  -4.2410 -0.0000 2.1200
v  2.1200 0.0000 -2.1200
v  -2.1200 -0.0000 2.1200
v  -4.2410 -0.0000 4.2410
v  4.2410 0.0000 -4.2410
v  2.1200 0.0000 -0.0000
v  4.2410 0.0000 -2.1200
v  2.1200 -0.0000 2.1200
v  4.2410 0.0000 -0.0000
v  2.1200 -0.0000 4.2410
v  4.2410 -0.0000 2.1200
v  0.0000 -0.0000 4.2410
v  0.0000 -0.0000 2.1200
v  -2.1200 -0.0000 4.2410
v  4.2410 -0.0000 4.2410
# 24 vertices

vn 0.0000 1.0000 0.0000
# 1 vertex normals

vt 0.0000 1.0000 0.0000
vt 1.0000 1.0000 0.0000
vt 1.0000 0.0000 0.0000
vt 0.0000 0.0000 0.0000
vt 1.9995 0.0000 0.0000
vt 0.0000 2.0000 0.0000
vt 1.0000 2.0000 0.0000
vt 1.9995 1.0000 0.0000
vt 2.9995 0.0000 0.0000
vt 0.0000 3.0000 0.0000
vt 2.9995 1.0000 0.0000
vt 1.0000 3.0000 0.0000
vt 0.0000 4.0000 0.0000
vt 3.9995 0.0000 0.0000
vt 2.9995 2.0000 0.0000
vt 3.9995 1.0000 0.0000
vt 2.9995 3.0000 0.0000
vt 3.9995 2.0000 0.0000
vt 2.9995 4.0000 0.0000
vt 3.9995 3.0000 0.0000
vt 1.9995 4.0000 0.0000
vt 1.9995 3.0000 0.0000
vt 1.0000 4.0000 0.0000
vt 3.9995 4.0000 0.0000
# 24 texture coords

g Nemu_76BACB49_0_030
usemtl Material__395
s 1
f 1/1/1 2/2/1 3/3/1 
f 1/1/1 3/3/1 4/4/1 
f 2/2/1 5/5/1 3/3/1 
f 6/6/1 2/2/1 1/1/1 
f 6/6/1 7/7/1 2/2/1 
f 2/2/1 8/8/1 5/5/1 
f 8/8/1 9/9/1 5/5/1 
f 10/10/1 7/7/1 6/6/1 
f 8/8/1 11/11/1 9/9/1 
f 10/10/1 12/12/1 7/7/1 
f 13/13/1 12/12/1 10/10/1 
f 11/11/1 14/14/1 9/9/1 
f 15/15/1 16/16/1 11/11/1 
f 11/11/1 16/16/1 14/14/1 
f 17/17/1 18/18/1 15/15/1 
f 15/15/1 18/18/1 16/16/1 
f 19/19/1 20/20/1 17/17/1 
f 17/17/1 20/20/1 18/18/1 
f 21/21/1 17/17/1 22/22/1 
f 21/21/1 19/19/1 17/17/1 
f 23/23/1 22/22/1 12/12/1 
f 19/19/1 24/24/1 20/20/1 
f 13/13/1 23/23/1 12/12/1 
f 23/23/1 21/21/1 22/22/1 
# 0 polygons - 24 triangles

#
# object Nemu_35BF7BB8_0_029
#

v  -2.1200 0.0000 -0.0000
v  0.0000 0.0000 -0.0000
v  0.0000 0.0000 -2.1200
v  -2.1200 0.0000 -2.1200
v  -2.1200 -0.0000 2.1200
v  2.1200 0.0000 -2.1200
v  0.0000 -0.0000 2.1200
v  2.1200 0.0000 -0.0000
v  2.1200 -0.0000 2.1200
# 9 vertices

vn 0.0000 1.0000 0.0000
# 1 vertex normals

vt 0.0000 0.4998 0.0000
vt 0.4998 0.4998 0.0000
vt 0.4998 0.0000 0.0000
vt 0.0000 0.0000 0.0000
vt 0.0000 0.9998 0.0000
vt 1.0000 0.0000 0.0000
vt 0.4998 0.9998 0.0000
vt 1.0000 0.4998 0.0000
vt 1.0000 0.9998 0.0000
# 9 texture coords

g Nemu_35BF7BB8_0_029
usemtl Material__394
s 1
f 25/25/2 26/26/2 27/27/2 
f 25/25/2 27/27/2 28/28/2 
f 29/29/2 26/26/2 25/25/2 
f 26/26/2 30/30/2 27/27/2 
f 31/31/2 32/32/2 26/26/2 
f 26/26/2 32/32/2 30/30/2 
f 29/29/2 31/31/2 26/26/2 
f 31/31/2 33/33/2 32/32/2 
# 0 polygons - 8 triangles

#
# object Nemu_32F6789_0_028
#

v  -13.3550 0.6280 -11.1230
v  -10.5900 0.3230 -10.0020
v  -11.3380 1.7360 -13.5410
v  -13.6530 0.1240 -13.9840
v  -13.3930 0.4000 -8.3070
v  -11.0270 0.7670 -7.9670
v  -13.6220 0.2940 -5.5090
v  -10.8790 1.7980 -6.0570
v  -12.8950 1.4610 -2.4880
v  -10.3550 1.2410 -2.5590
v  -13.6380 0.2450 0.7430
v  -10.4880 1.2630 -0.1990
v  -12.8390 0.0700 2.2700
v  -11.1900 -0.0300 2.7270
v  -8.4990 0.9810 -10.5680
v  -8.5580 0.9550 -12.9720
v  -8.0570 0.5440 -8.0410
v  -7.7680 0.0700 -5.7840
v  -8.6060 1.5280 -2.7510
v  -8.8260 -0.0530 -0.0250
v  -8.0010 -0.0790 2.3380
v  -10.3590 0.4680 5.5010
v  -7.7800 1.4950 5.2760
v  -13.9190 1.3780 5.1570
v  -13.4100 1.3320 7.1590
v  -10.6310 1.4810 7.9960
v  -12.9490 0.6110 11.2380
v  -10.6520 1.8040 10.9880
v  -12.9580 0.2900 13.8720
v  -10.3680 -0.0420 13.3040
v  -7.3150 1.5050 7.5080
v  -7.3470 0.3310 11.3160
v  -8.4860 0.1870 13.3600
v  -5.4850 0.7960 8.0110
v  -4.2410 -0.0000 4.2410
v  -4.2410 -0.0000 2.1200
v  -4.2410 0.0000 -0.0000
v  -4.2410 0.0000 -2.1200
v  -4.2410 0.0000 -4.2410
v  -5.3800 1.4370 -7.8710
v  -5.7800 1.6270 -10.8990
v  -5.5280 0.8570 10.3900
v  -5.1860 1.0340 -13.2330
v  -5.2740 -0.1480 13.5490
v  -2.4050 0.4890 -10.8100
v  -2.3630 -0.0090 -13.5030
v  -3.0180 0.2300 -8.1030
v  -2.1200 0.0000 -4.2410
v  -2.5300 0.1220 7.1380
v  -2.1200 -0.0000 4.2410
v  -3.0230 1.5570 10.6850
v  -2.9020 0.3550 12.8870
v  0.4830 1.5200 13.9440
v  -0.1090 -0.0060 10.0310
v  0.3310 0.3820 8.4370
v  0.0000 -0.0000 4.2410
v  2.1200 -0.0000 4.2410
v  2.5870 1.1040 11.0120
v  2.1160 0.4110 8.3800
v  4.2410 -0.0000 4.2410
v  2.1360 0.5500 12.7450
v  5.8930 1.2760 8.5370
v  4.7470 0.4350 13.1450
v  4.9760 0.5140 10.6870
v  8.2230 -0.1070 4.8190
v  4.2410 -0.0000 2.1200
v  8.3560 1.7430 1.9590
v  8.6810 0.7090 0.3100
v  4.2410 0.0000 -0.0000
v  7.8480 0.7150 10.7930
v  7.3100 0.2910 8.3770
v  11.1260 1.2550 3.5490
v  8.2420 1.4570 13.3920
v  11.2360 0.6490 -0.0940
v  10.2510 -0.0100 5.5870
v  10.8680 1.3510 10.9440
v  10.1540 0.8090 7.3260
v  10.7590 -0.1020 13.7490
v  13.2930 1.3250 3.2200
v  13.5770 1.0690 0.5050
v  13.3230 -0.1040 5.0000
v  12.4080 0.5060 8.1700
v  13.2250 0.6050 10.7300
v  13.8390 0.0530 13.2730
v  -0.4020 1.3630 -10.9450
v  0.5270 0.0400 -13.2410
v  0.0430 0.4640 -7.7570
v  0.0000 0.0000 -4.2410
v  3.0540 0.0990 -10.2080
v  3.4530 1.2120 -13.7750
v  3.0020 1.1020 -8.2010
v  2.1200 0.0000 -4.2410
v  4.7650 -0.1130 -10.7340
v  5.4960 1.6850 -13.0760
v  5.7380 0.1120 -7.3290
v  4.2410 0.0000 -4.2410
v  8.2490 0.1390 -10.8930
v  7.3050 1.7360 -14.2210
v  8.1340 1.3640 -7.9170
v  8.5020 0.5790 -5.9980
v  4.2410 0.0000 -2.1200
v  7.0670 1.5570 -2.4580
v  10.9490 0.0280 -5.8040
v  11.1480 0.8710 -8.6190
v  10.6220 0.1560 -10.7740
v  10.8390 0.3990 -12.9250
v  10.3890 1.3480 -2.1930
v  12.3100 0.7250 -10.4420
v  13.3060 1.6080 -13.8300
v  13.5790 0.0440 -8.2860
v  13.6690 1.7460 -5.5740
v  12.8990 0.4200 -3.3760
# 112 vertices

vn -0.0521 0.9236 0.3798
vn -0.5580 0.8253 -0.0873
vn -0.1158 0.9650 -0.2354
vn 0.0766 0.9937 0.0815
vn -0.5019 0.7768 -0.3804
vn -0.1567 0.9873 0.0246
vn 0.0696 0.9248 -0.3740
vn -0.4388 0.8749 0.2050
vn -0.2103 0.9299 0.3016
vn 0.0862 0.9963 -0.0044
vn 0.0336 0.9948 0.0964
vn -0.1881 0.9142 0.3589
vn -0.3009 0.9537 -0.0029
vn 0.1925 0.9247 0.3285
vn 0.0685 0.9777 -0.1986
vn -0.2425 0.9480 0.2063
vn 0.4638 0.7641 -0.4484
vn 0.0783 0.9776 0.1953
vn -0.1929 0.8625 -0.4679
vn 0.4799 0.8747 0.0674
vn 0.6188 0.7851 0.0276
vn -0.0876 0.8648 0.4945
vn 0.0160 0.9999 0.0054
vn 0.5264 0.7238 0.4461
vn -0.3735 0.9260 -0.0544
vn -0.0437 0.8820 -0.4692
vn 0.1553 0.9204 -0.3589
vn 0.2623 0.9331 -0.2461
vn 0.0616 0.9271 -0.3697
vn 0.2512 0.9670 -0.0417
vn -0.4671 0.8788 -0.0981
vn -0.1081 0.9768 0.1849
vn 0.1521 0.9810 0.1201
vn -0.3094 0.7248 0.6156
vn -0.0628 0.9223 -0.3813
vn -0.3636 0.9288 0.0716
vn 0.4131 0.9057 -0.0949
vn 0.0365 0.9549 0.2947
vn -0.1209 0.9927 0.0026
vn 0.2844 0.7664 0.5760
vn 0.3798 0.9213 -0.0833
vn 0.2771 0.9175 0.2852
vn 0.2217 0.8525 -0.4734
vn 0.3698 0.9262 -0.0736
vn -0.0210 0.9998 0.0000
vn -0.0116 0.9999 0.0000
vn -0.0116 0.9998 0.0151
vn 0.3304 0.9438 0.0000
vn 0.2200 0.8360 0.5026
vn -0.1599 0.8996 0.4063
vn 0.1858 0.9046 -0.3836
vn -0.3213 0.9221 0.2157
vn -0.3210 0.9178 0.2338
vn -0.2317 0.9728 -0.0048
vn -0.2198 0.9714 0.0900
vn -0.2916 0.9561 -0.0298
vn -0.0425 0.9657 -0.2562
vn 0.0958 0.9878 0.1230
vn -0.1154 0.9439 0.3096
vn 0.3276 0.9300 -0.1669
vn 0.3193 0.9347 -0.1562
vn 0.4615 0.8671 0.1875
vn 0.3191 0.9476 0.0173
vn 0.0000 0.9298 0.3681
vn 0.4504 0.8913 -0.0516
vn 0.2196 0.9755 -0.0100
vn 0.0000 0.9784 -0.2066
vn -0.2658 0.9636 -0.0295
vn 0.1049 0.9269 -0.3604
vn -0.2896 0.9051 0.3112
vn -0.4134 0.7895 0.4537
vn -0.0515 0.8754 0.4807
vn 0.5026 0.7978 0.3329
vn 0.3674 0.8463 -0.3856
vn -0.0511 0.9949 -0.0865
vn 0.0810 0.9278 -0.3641
vn 0.0000 0.9959 -0.0907
vn 0.0000 0.9991 -0.0421
vn -0.0237 0.9678 -0.2506
vn -0.0193 0.9949 -0.0988
vn -0.2605 0.9122 -0.3163
vn -0.4115 0.9051 0.1067
vn 0.0000 0.9951 -0.0988
vn 0.6573 0.6513 0.3792
vn -0.2096 0.9541 -0.2137
vn -0.2106 0.9563 -0.2031
vn 0.2463 0.9677 0.0541
vn 0.2711 0.8650 0.4222
vn 0.0703 0.9485 -0.3088
vn -0.0045 0.9528 0.3034
vn -0.3201 0.8022 0.5040
vn 0.0269 0.9996 0.0000
vn -0.1577 0.9875 0.0000
vn -0.3447 0.7632 -0.5465
vn 0.5312 0.8064 -0.2598
vn 0.5741 0.8168 0.0560
vn -0.0707 0.9972 0.0255
vn -0.0777 0.9497 0.3035
vn 0.3913 0.8124 -0.4323
vn -0.2583 0.9386 -0.2288
vn -0.1582 0.8324 0.5311
vn -0.0028 0.9864 -0.1642
vn -0.0050 0.9936 -0.1124
vn -0.2113 0.8685 0.4484
vn -0.2150 0.9712 -0.1031
vn -0.3103 0.8532 -0.4192
vn -0.1882 0.9516 -0.2431
vn -0.1984 0.9719 -0.1264
vn 0.4312 0.7942 0.4282
vn -0.0471 0.9940 -0.0987
vn -0.1327 0.9771 -0.1665
vn 0.1326 0.8156 0.5632
vn 0.0696 0.7785 0.6238
vn -0.0064 0.9816 -0.1907
vn 0.2671 0.8775 -0.3984
vn 0.2886 0.9488 -0.1288
vn 0.1981 0.9629 -0.1833
vn 0.0265 0.8872 0.4606
vn 0.3099 0.9419 0.1296
vn -0.3604 0.7377 -0.5709
vn -0.0002 0.9833 -0.1818
vn -0.0845 0.9935 0.0759
vn -0.3645 0.8817 0.2995
vn 0.0000 0.9914 0.1308
vn -0.0848 0.9933 0.0789
vn -0.3205 0.9138 0.2493
vn 0.3860 0.8582 -0.3383
vn -0.2518 0.8631 -0.4378
vn 0.2930 0.9301 0.2214
vn -0.1724 0.9582 0.2283
vn 0.2848 0.7154 0.6381
vn -0.2997 0.9198 0.2535
vn 0.4215 0.8155 -0.3966
vn 0.0944 0.9912 -0.0925
vn 0.0000 0.9993 0.0362
vn 0.2351 0.9216 0.3088
vn 0.2110 0.9033 0.3736
vn -0.0302 0.7974 0.6027
vn -0.4486 0.8910 0.0693
vn -0.0840 0.9203 -0.3821
vn -0.1493 0.9881 -0.0366
vn -0.3409 0.8454 0.4112
vn -0.4826 0.8759 0.0000
vn -0.2685 0.8951 -0.3561
vn -0.3831 0.7967 0.4674
vn 0.2206 0.9300 0.2941
vn 0.1805 0.9220 0.3426
vn 0.0124 0.9248 -0.3802
vn 0.0768 0.9406 -0.3308
vn 0.2041 0.9039 0.3759
vn -0.0127 0.9937 0.1110
vn 0.0855 0.9400 -0.3304
vn 0.2293 0.9581 -0.1717
vn 0.0683 0.9545 0.2903
vn 0.0388 0.9615 0.2719
vn -0.4015 0.9081 0.1186
vn -0.3314 0.9407 0.0728
vn 0.3052 0.9449 0.1188
vn -0.2662 0.9324 -0.2444
vn -0.4441 0.7655 -0.4657
vn 0.2716 0.9165 0.2937
vn 0.5074 0.6476 0.5684
vn -0.4746 0.8004 -0.3662
vn -0.2597 0.8800 0.3978
vn 0.2542 0.9457 -0.2026
# 165 vertex normals

vt 1.5605 0.3965 0.0000
vt 1.5205 0.2402 0.0000
vt 1.4453 0.9639 0.0000
vt 1.4941 0.1387 0.0000
vt 1.6504 0.2803 0.0000
vt 1.6055 0.4678 0.0000
vt 1.7598 0.2256 0.0000
vt 1.6816 0.9961 0.0000
vt 1.8848 0.8232 0.0000
vt 1.8525 0.7109 0.0000
vt 2.0410 0.2012 0.0000
vt 1.9961 0.7217 0.0000
vt 2.1182 0.1104 0.0000
vt 2.1592 0.0596 0.0000
vt 1.4336 0.5771 0.0000
vt 1.3721 0.5645 0.0000
vt 1.5039 0.3535 0.0000
vt 1.5977 0.1113 0.0000
vt 1.8115 0.8584 0.0000
vt 2.0078 0.0479 0.0000
vt 2.1914 0.0352 0.0000
vt 2.3184 0.3154 0.0000
vt 2.3877 0.8408 0.0000
vt 2.2314 0.7813 0.0000
vt 2.3174 0.7578 0.0000
vt 2.4160 0.8340 0.0000
vt 2.4590 0.3877 0.0000
vt 2.5146 1.0000 0.0000
vt 2.5254 0.2236 0.0000
vt 2.5820 0.0537 0.0000
vt 2.5156 0.8457 0.0000
vt 2.6377 0.2441 0.0000
vt 2.6436 0.1709 0.0000
vt 2.6240 0.4834 0.0000
vt 2.5127 0.0752 0.0000
vt 2.3135 0.0752 0.0000
vt 2.0205 0.0752 0.0000
vt 1.7188 0.0752 0.0000
vt 1.5068 0.0752 0.0000
vt 1.3848 0.8115 0.0000
vt 1.3115 0.9092 0.0000
vt 2.6934 0.5137 0.0000
vt 1.2383 0.6045 0.0000
vt 2.7666 0.0000 0.0000
vt 1.1387 0.3252 0.0000
vt 1.1094 0.0703 0.0000
vt 1.2275 0.1934 0.0000
vt 1.2979 0.0752 0.0000
vt 2.7900 0.1377 0.0000
vt 2.7168 0.0752 0.0000
vt 2.8281 0.8730 0.0000
vt 2.8613 0.2568 0.0000
vt 3.0234 0.8545 0.0000
vt 2.9951 0.0723 0.0000
vt 3.0273 0.2715 0.0000
vt 3.0049 0.0752 0.0000
vt 3.2910 0.0752 0.0000
vt 3.1465 0.6406 0.0000
vt 3.1572 0.2861 0.0000
vt 3.4922 0.0752 0.0000
vt 3.1064 0.3574 0.0000
vt 3.3818 0.7285 0.0000
vt 3.2197 0.2979 0.0000
vt 3.2754 0.3389 0.0000
vt 3.6553 0.0205 0.0000
vt 3.6904 0.0752 0.0000
vt 3.8438 0.9678 0.0000
vt 3.9668 0.4385 0.0000
vt 3.9785 0.0752 0.0000
vt 3.3975 0.4414 0.0000
vt 3.4531 0.2246 0.0000
vt 3.7969 0.7178 0.0000
vt 3.3496 0.8213 0.0000
vt 3.9971 0.4082 0.0000
vt 3.6768 0.0693 0.0000
vt 3.4941 0.7676 0.0000
vt 3.5967 0.4893 0.0000
vt 3.4199 0.0225 0.0000
vt 3.8428 0.7539 0.0000
vt 3.9697 0.6230 0.0000
vt 3.7656 0.0215 0.0000
vt 3.6250 0.3340 0.0000
vt 3.5625 0.3848 0.0000
vt 3.5107 0.1025 0.0000
vt 1.0205 0.7734 0.0000
vt 0.9717 0.0957 0.0000
vt 0.9922 0.3125 0.0000
vt 0.9932 0.0752 0.0000
vt 0.8096 0.1260 0.0000
vt 0.8398 0.6963 0.0000
vt 0.7695 0.6396 0.0000
vt 0.6914 0.0752 0.0000
vt 0.7285 0.0176 0.0000
vt 0.7422 0.9385 0.0000
vt 0.5684 0.1328 0.0000
vt 0.4863 0.0752 0.0000
vt 0.5811 0.1465 0.0000
vt 0.6934 0.9648 0.0000
vt 0.4834 0.7734 0.0000
vt 0.3818 0.3721 0.0000
vt 0.2754 0.0752 0.0000
vt 0.2002 0.8730 0.0000
vt -0.0205 0.0752 0.0000
vt -0.0322 0.4385 0.0000
vt 0.3027 0.0898 0.0000
vt 0.4121 0.5215 0.0000
vt 0.4990 0.1553 0.0000
vt 0.5508 0.2793 0.0000
vt 0.1230 0.7656 0.0000
vt -0.0020 0.4082 0.0000
vt 0.4424 0.4463 0.0000
vt 0.5078 0.8984 0.0000
vt 0.3428 0.0977 0.0000
vt 0.2402 0.9697 0.0000
vt 0.1553 0.2900 0.0000
vt -0.0293 0.6230 0.0000
# 116 texture coords

g Nemu_32F6789_0_028
usemtl Material__393
s 1
f 34/34/3 35/35/3 36/36/3 
f 34/34/4 36/36/4 37/37/4 
f 38/38/5 39/39/5 35/35/5 
f 38/38/6 35/35/6 34/34/6 
f 40/40/7 41/41/7 39/39/7 
f 40/40/8 39/39/8 38/38/8 
f 40/40/9 42/42/9 43/43/9 
f 40/40/10 43/43/10 41/41/10 
f 42/42/11 44/44/11 45/45/11 
f 42/42/12 45/45/12 43/43/12 
f 44/44/13 46/46/13 47/47/13 
f 44/44/14 47/47/14 45/45/14 
f 35/35/15 48/48/15 49/49/15 
f 35/35/16 49/49/16 36/36/16 
f 35/35/17 39/39/17 50/50/17 
f 35/35/18 50/50/18 48/48/18 
f 39/39/19 41/41/19 51/51/19 
f 39/39/20 51/51/20 50/50/20 
f 43/43/21 52/52/21 51/51/21 
f 43/43/22 51/51/22 41/41/22 
f 43/43/23 45/45/23 53/53/23 
f 43/43/24 53/53/24 52/52/24 
f 47/47/25 54/54/25 53/53/25 
f 47/47/26 53/53/26 45/45/26 
f 47/47/27 55/55/27 56/56/27 
f 47/47/28 56/56/28 54/54/28 
f 57/57/29 47/47/29 46/46/29 
f 57/57/30 55/55/30 47/47/30 
f 58/58/31 59/59/31 55/55/31 
f 58/58/32 55/55/32 57/57/32 
f 60/60/33 61/61/33 59/59/33 
f 60/60/34 59/59/34 58/58/34 
f 60/60/35 62/62/35 63/63/35 
f 60/60/36 63/63/36 61/61/36 
f 55/55/37 59/59/37 64/64/37 
f 55/55/38 64/64/38 56/56/38 
f 59/59/39 61/61/39 65/65/39 
f 59/59/40 65/65/40 64/64/40 
f 63/63/41 66/66/41 65/65/41 
f 63/63/42 65/65/42 61/61/42 
f 56/56/43 64/64/43 67/67/43 
f 65/65/44 67/67/44 64/64/44 
f 54/54/45 56/56/45 68/68/45 
f 56/56/46 67/67/46 68/68/46 
f 54/54/47 69/69/47 70/70/47 
f 54/54/47 68/68/47 69/69/47 
f 53/53/48 70/70/48 71/71/48 
f 54/54/49 70/70/49 53/53/49 
f 52/52/50 71/71/50 72/72/50 
f 53/53/51 71/71/51 52/52/51 
f 51/51/52 72/72/52 73/73/52 
f 52/52/53 72/72/53 51/51/53 
f 48/48/54 50/50/54 73/73/54 
f 51/51/55 73/73/55 50/50/55 
f 49/49/56 48/48/56 74/74/56 
f 48/48/57 73/73/57 74/74/57 
f 65/65/58 75/75/58 67/67/58 
f 49/49/59 74/74/59 76/76/59 
f 65/65/60 66/66/60 77/77/60 
f 65/65/61 77/77/61 75/75/61 
f 76/76/62 78/78/62 79/79/62 
f 76/76/63 74/74/63 78/78/63 
f 73/73/64 80/80/64 78/78/64 
f 73/73/65 78/78/65 74/74/65 
f 73/73/66 72/72/66 81/81/66 
f 73/73/67 81/81/67 80/80/67 
f 67/67/68 82/82/68 83/83/68 
f 67/67/69 83/83/69 68/68/69 
f 67/67/70 75/75/70 84/84/70 
f 67/67/71 84/84/71 82/82/71 
f 77/77/72 84/84/72 75/75/72 
f 84/84/73 85/85/73 86/86/73 
f 77/77/74 85/85/74 84/84/74 
f 84/84/75 87/87/75 88/88/75 
f 84/84/76 86/86/76 87/87/76 
f 82/82/77 88/88/77 89/89/77 
f 84/84/78 88/88/78 82/82/78 
f 88/88/79 90/90/79 89/89/79 
f 82/82/80 89/89/80 83/83/80 
f 88/88/81 91/91/81 92/92/81 
f 88/88/82 92/92/82 90/90/82 
f 86/86/83 91/91/83 87/87/83 
f 88/88/84 87/87/84 91/91/84 
f 92/92/85 93/93/85 90/90/85 
f 86/86/86 94/94/86 91/91/86 
f 91/91/87 95/95/87 92/92/87 
f 92/92/88 95/95/88 93/93/88 
f 91/91/89 96/96/89 97/97/89 
f 91/91/90 97/97/90 95/95/90 
f 95/95/91 98/98/91 93/93/91 
f 91/91/92 94/94/92 96/96/92 
f 99/99/93 98/98/93 100/100/93 
f 99/99/94 93/93/94 98/98/94 
f 99/99/95 101/101/95 102/102/95 
f 99/99/96 100/100/96 101/101/96 
f 95/95/97 103/103/97 104/104/97 
f 95/95/98 104/104/98 98/98/98 
f 96/96/99 103/103/99 97/97/99 
f 95/95/100 97/97/100 103/103/100 
f 101/101/101 100/100/101 105/105/101 
f 96/96/102 106/106/102 103/103/102 
f 98/98/103 105/105/103 100/100/103 
f 101/101/104 105/105/104 107/107/104 
f 104/104/105 108/108/105 98/98/105 
f 98/98/106 108/108/106 105/105/106 
f 104/104/107 109/109/107 110/110/107 
f 104/104/108 110/110/108 108/108/108 
f 106/106/109 109/109/109 103/103/109 
f 104/104/110 103/103/110 109/109/110 
f 106/106/111 111/111/111 109/109/111 
f 105/105/112 112/112/112 113/113/112 
f 105/105/113 113/113/113 107/107/113 
f 105/105/114 108/108/114 114/114/114 
f 105/105/115 114/114/115 112/112/115 
f 108/108/116 115/115/116 114/114/116 
f 108/108/117 110/110/117 115/115/117 
f 109/109/118 116/116/118 115/115/118 
f 109/109/119 115/115/119 110/110/119 
f 109/109/120 111/111/120 117/117/120 
f 109/109/121 117/117/121 116/116/121 
f 78/78/122 118/118/122 119/119/122 
f 78/78/123 119/119/123 79/79/123 
f 78/78/124 80/80/124 120/120/124 
f 78/78/125 120/120/125 118/118/125 
f 81/81/126 121/121/126 120/120/126 
f 81/81/127 120/120/127 80/80/127 
f 119/119/128 122/122/128 123/123/128 
f 119/119/129 118/118/129 122/122/129 
f 120/120/130 124/124/130 122/122/130 
f 120/120/131 122/122/131 118/118/131 
f 120/120/126 121/121/126 125/125/126 
f 120/120/132 125/125/132 124/124/132 
f 122/122/133 126/126/133 127/127/133 
f 122/122/134 127/127/134 123/123/134 
f 122/122/135 124/124/135 128/128/135 
f 122/122/136 128/128/136 126/126/136 
f 125/125/137 129/129/137 128/128/137 
f 125/125/138 128/128/138 124/124/138 
f 127/127/139 130/130/139 131/131/139 
f 127/127/140 126/126/140 130/130/140 
f 126/126/141 128/128/141 132/132/141 
f 126/126/142 132/132/142 130/130/142 
f 128/128/143 129/129/143 133/133/143 
f 128/128/144 133/133/144 132/132/144 
f 129/129/145 134/134/145 135/135/145 
f 129/129/146 135/135/146 133/133/146 
f 134/134/95 102/136/95 101/137/95 
f 134/134/147 101/137/147 135/135/147 
f 132/132/148 136/138/148 137/139/148 
f 132/132/149 133/133/149 136/138/149 
f 132/132/150 138/140/150 130/130/150 
f 132/132/151 137/139/151 138/140/151 
f 130/130/152 139/141/152 131/131/152 
f 130/130/153 138/140/153 139/141/153 
f 135/135/154 140/142/154 136/138/154 
f 135/135/155 136/138/155 133/133/155 
f 101/137/156 107/143/156 140/142/156 
f 101/137/157 140/142/157 135/135/157 
f 139/141/158 141/144/158 142/145/158 
f 139/141/159 138/140/159 141/144/159 
f 137/139/160 143/146/160 141/144/160 
f 137/139/161 141/144/161 138/140/161 
f 136/138/162 144/147/162 143/146/162 
f 136/138/163 143/146/163 137/139/163 
f 140/142/164 145/148/164 144/147/164 
f 140/142/165 144/147/165 136/138/165 
f 140/142/166 107/143/166 113/149/166 
f 140/142/167 113/149/167 145/148/167 
# 0 polygons - 168 triangles

